<?xml version="1.0" encoding="UTF-8"?>
<svg id="Logo_file" data-name="Logo file" xmlns="http://www.w3.org/2000/svg" xmlns:xlink="http://www.w3.org/1999/xlink" viewBox="0 0 841.89 595.28">
  <defs>
    <style>
      .cls-1 {
        stroke-dasharray: 0 0 5.99 5.99;
      }

      .cls-1, .cls-2, .cls-3, .cls-4, .cls-5, .cls-6, .cls-7, .cls-8 {
        fill: none;
      }

      .cls-1, .cls-3, .cls-4, .cls-5, .cls-6 {
        stroke-linecap: round;
      }

      .cls-1, .cls-3, .cls-5, .cls-6 {
        stroke-linejoin: round;
      }

      .cls-1, .cls-4, .cls-9, .cls-5, .cls-7 {
        stroke-width: 2px;
      }

      .cls-1, .cls-4, .cls-5, .cls-7, .cls-8, .cls-10 {
        stroke: #006b7e;
      }

      .cls-11 {
        clip-path: url(#clippath);
      }

      .cls-2, .cls-12 {
        stroke-width: 0px;
      }

      .cls-3 {
        stroke-width: 5px;
      }

      .cls-3, .cls-9, .cls-6 {
        stroke: #fff;
      }

      .cls-4 {
        stroke-dasharray: 0 4;
      }

      .cls-4, .cls-9, .cls-7, .cls-8, .cls-10 {
        stroke-miterlimit: 10;
      }

      .cls-9 {
        fill: #fff;
      }

      .cls-6, .cls-8 {
        stroke-width: 4px;
      }

      .cls-10 {
        fill: #006b7e;
        stroke-width: 3px;
      }

      .cls-12 {
        fill: #fbba18;
      }
    </style>
    <clipPath id="clippath">
      <path class="cls-2" d="m308.47,382.15c3.07-26.17,24.66-31.86,38.64-15.57,6.73,7.84,10.6,16.73,16.6,25.15,9.93,13.95,22.64,19.26,31.97,19.26,24.27,0,36.41-8.93,36.41-26.79,0-10.45-13.63-22.24-40.89-35.38-36.91-17.52-62-32.17-75.31-43.96-27.26-23.93-40.89-54.59-40.89-91.99,0-40.77,13.05-74.29,39.15-100.58,26.1-26.28,59.1-39.42,98.99-39.42s74.14,10.11,99.74,30.34c28.26,21.9,42.39,53.07,42.39,93.52,0,20.22-10.3,30.34-30.92,30.34-6.65,0-13.54-2.52-20.7-7.56-7.15-5.04-17.37-7.56-30.67-7.56-22.94,0-34.41,11.12-34.41,33.39,0,7.42,7.65,17.71,22.94,30.86,22.94,20.24,38.31,30.46,42.96,35.86,15.3,17.2,21.37,36.99,21.37,54.19,0,30.69-17.38,59.84-41.65,77.71-21.61,15.85-42.64,18.53-73.89,18.53-9.97,0-24.8-.43-46.17-8.37-28.71-10.67-60.64-29.58-55.66-71.98Z"/>
    </clipPath>
  </defs>
  <g id="artwork">
    <g id="Shape">
      <path class="cls-12" d="m307.87,382.05c3.07-26.17,24.66-31.86,38.64-15.57,6.73,7.84,10.6,16.73,16.6,25.15,9.93,13.95,22.64,19.26,31.97,19.26,24.27,0,36.41-8.93,36.41-26.79,0-10.45-13.63-22.24-40.89-35.38-36.91-17.52-62-32.17-75.31-43.96-27.26-23.93-40.89-54.59-40.89-91.99,0-40.77,13.05-74.29,39.15-100.58,26.1-26.28,59.1-39.42,98.99-39.42s74.14,10.11,99.74,30.34c28.26,21.9,42.39,53.07,42.39,93.52,0,20.22-10.3,30.34-30.92,30.34-6.65,0-13.54-2.52-20.7-7.56-7.15-5.04-17.37-7.56-30.67-7.56-22.94,0-34.41,11.12-34.41,33.39,0,7.42,7.65,17.71,22.94,30.86,22.94,20.24,38.31,30.46,42.96,35.86,15.3,17.2,21.37,36.99,21.37,54.19,0,30.69-17.38,59.84-41.65,77.71-21.61,15.85-42.64,18.53-73.89,18.53-9.97,0-24.8-.43-46.17-8.37-28.71-10.67-60.64-29.58-55.66-71.98Z"/>
    </g>
    <g class="cls-11">
      <path id="circle" class="cls-9" d="m386.83,73.6c9.25,11.14,7.71,27.34-3.44,36.18-11.14,8.84-27.67,6.98-36.92-4.15-2.82-3.4-5.2-9.98-6.04-13.96"/>
      <path class="cls-3" d="m314.17,363.22s-2.5,13.56,3.68,26.96c8.28,17.98,21.24,52.7,84.36,59.26,63.12,6.56,105.9-35.66,106.61-73.45,1.18-62.77-82.3-94.44-97.28-117.73-10.47-16.27-.32-30.46,4.26-39.51.13-.26.26-.51.38-.76"/>
      <path class="cls-3" d="m329.87,355.27s-1.14,4.74,10.55,22.77c11.86,18.29,27.18,43.31,68.73,42.69,41.55-.61,52.63-42.87,39.57-66.05-14.5-25.74-65.31-50.18-92.26-81.51-26.95-31.33,24.21-69.06,24.21-69.06,0,0-37.01-52.97-45.48-50.85-13.9,3.47-61.27,62.85-61.27,62.85"/>
      <g>
        <path class="cls-5" d="m403.27,203.18s-.86.69-2.27,1.96"/>
        <path class="cls-1" d="m396.71,209.32c-10.95,11.4-29.61,36.77-6.75,59.81,15.86,15.98,43.75,35.19,63.32,52.89,28.84,26.09,36.55,64.33,10.62,93.31-8.46,9.45-22.5,22.51-41.01,21.71-47.89-2.07-76.23-16.52-88.08-38.99-7.67-14.54-11.49-26.8-13.23-33.65"/>
        <path class="cls-5" d="m320.88,361.48c-.42-1.9-.58-2.94-.58-2.94"/>
      </g>
      <g>
        <line class="cls-6" x1="344.18" y1="117.48" x2="325.09" y2="141.58"/>
        <line class="cls-6" x1="335.33" y1="107.33" x2="318.96" y2="122.46"/>
        <line class="cls-6" x1="356.05" y1="122.79" x2="351.11" y2="149.79"/>
        <line class="cls-6" x1="369.01" y1="124.53" x2="371.58" y2="162.74"/>
        <line class="cls-6" x1="403.33" y1="82.47" x2="427.43" y2="82.18"/>
        <line class="cls-6" x1="393.87" y1="116.21" x2="424.89" y2="140"/>
        <line class="cls-6" x1="405.14" y1="94.02" x2="444.63" y2="97.68"/>
        <line class="cls-6" x1="383.84" y1="123.5" x2="395.52" y2="149.08"/>
        <line class="cls-6" x1="401.94" y1="105.75" x2="429" y2="116.63"/>
      </g>
      <path class="cls-3" d="m487.31,163.88s23.86-27.92,28.37-26.72c12.37,3.32,39.21,36.21,39.21,36.21"/>
      <path class="cls-3" d="m416.06,218.25s43.49-72.72,53.91-68.46c14.59,5.97,70.24,72.78,70.24,72.78"/>
    </g>
  </g>
  <g id="s">
    <path class="cls-8" d="m308.47,378.48c3.07-25.75,23.09-27.92,37.07-11.9,6.73,7.71,10.6,16.86,16.6,25.15,9.93,13.73,25.14,18.38,34.43,19.22,21.84,1.97,36.24-12.97,33.66-30.35-1.52-10.23-13.29-21.34-40.56-34.27-36.91-17.23-60.49-32.31-73.79-43.91-27.26-23.54-40.89-53.71-40.89-90.5,0-40.11,13.05-73.09,39.15-98.95,26.1-25.86,59.1-38.79,98.99-38.79s74.14,9.95,99.74,29.85c28.26,21.55,42.39,52.22,42.39,92.01,0,19.89-10.3,29.85-30.92,29.85-6.65,0-13.54-2.48-20.7-7.44-7.15-4.96-17.37-7.44-30.67-7.44-22.94,0-34.41,10.95-34.41,32.85,0,7.3,7.65,17.42,22.94,30.37,22.94,19.91,36.74,32.51,41.39,37.82,15.3,16.93,22.94,33.85,22.94,50.78,0,30.19-12.04,57.71-36.31,75.3-21.61,15.59-46.78,24.83-78.03,24.83-9.97,0-27.57-1.02-48.93-8.83-28.71-10.5-59.07-33.94-54.09-75.66Z"/>
  </g>
  <g id="s-2" data-name="s">
    <g>
      <path class="cls-7" d="m320.88,447.46c-3.44-3.07-10.31-9.46-12.08-12.22-.6-.93-1.26-1.81-1.92-2.69-17.57-23.4-19.57-76.25,11.68-87.49,15.37-5.53,38.48,6.58,48.21,28.4,11,24.66,31.8,36.26,46.26,21.26,8.55-8.87,9.57-20.5-20.92-34.42-41.28-18.55-73.93-36.37-88.81-48.86-30.49-25.34-46.97-64.22-46.97-103.82,0-43.17,14.6-78.66,43.79-106.49,29.2-27.83,66.1-41.74,110.72-41.74s82.93,10.7,111.56,32.12c31.61,23.19,47.33,51.04,47.33,93.86,0,21.41-4.29,47.09-31.38,50.47-7.38.92-30.02-.06-45.78-9.01-7.33-4.17-23.97-9.43-34.44,1.18-16.84,17.05.18,25.56,20.45,46.23,7.71,7.86,15.87,15.28,32.97,29.21,11.76,9.82,18.79,20.51,23.03,30.34,1.92,4.45,3.28,10.66,4.14,17.44,2.2,17.36.37,34.97-4.79,51.72l-5.03,13.71"/>
      <path class="cls-4" d="m324.1,449.92s3.7,2.99,10.95,7.57c6.75,4.27,8.51,5.02,8.51,5.02"/>
      <line class="cls-4" x1="521.8" y1="431.7" x2="527.2" y2="421.72"/>
    </g>
  </g>
  <g id="Text">
    <g>
      <path class="cls-10" d="m351.45,485.59c.51.87.77,1.3,1.29,2.16.51.86.76,1.29,1.28,2.14.97,1.6,1.74,2.98,2.28,4.15,1.47,3.09,2.04,6.04,1.63,8.86-.39,2.66-1.53,4.91-3.43,6.69-2.16,2.02-4.99,3.06-8.44,2.96-2.76-.08-5.1-.92-6.93-2.45-1.83-1.53-2.62-3.33-2.39-5.31.13-1.04.93-1.45,2.39-1.24.62.09,1.12.28,1.49.58.42.34.6.78.54,1.27-.12,1.39.29,2.4,1.22,3.01.82.53,1.95.75,3.35.62,1.29-.12,2.58-.48,3.81-1.06,1.24-.59,2.09-1.26,2.55-1.96,1.05-1.52,1.62-3.27,1.74-5.23.12-1.94-.21-3.83-.96-5.68-.44-1.08-1.16-2.37-2.12-3.87-.48-.74-.72-1.11-1.19-1.85-.5-.76-.9-1.4-1.2-1.9-1.73-3.03-2.44-6.2-2.19-9.45.24-3.1,1.33-5.98,3.15-8.67,1.75-2.59,3.81-3.91,6.14-4.08,1.77-.12,3.53.24,5.27,1.06,1.25.59,2.76,1.58,4.52,2.96.42.32.63.7.63,1.12,0,.38-.16.74-.51,1.04-.33.29-.75.48-1.18.51-.51.04-1-.12-1.42-.45-.69-.54-1.31-1-1.86-1.37-.77-.53-1.5-.93-2.17-1.21-1.77-.74-3.23-.72-4.38.18-1.3,1.02-2.39,2.72-3.22,5.1-1.54,4.42-1.5,8.21.3,11.35Z"/>
      <path class="cls-10" d="m388.73,519.21c.11.91-.54,1.42-1.94,1.48-1.37.06-2.21-.41-2.5-1.36-.89-2.91-1.91-6.73-2.97-11.45-.5-2.3-.74-3.45-1.2-5.75-.48-2.29-.7-3.44-1.14-5.73-.46-2.25-1.04-4.89-1.69-7.93-.35-1.59-.52-2.39-.84-3.98-.33-1.58-.48-2.37-.78-3.95-.91,4.55-2,10.62-3.24,18.23-.59,3.66-.89,5.49-1.48,9.14-.54,3.49-1.04,6.54-1.51,9.14-.18,1.02-1.03,1.39-2.54,1.1-1.51-.29-2.16-.95-1.96-1.97.61-3.01,1.33-6.83,2.18-11.43.41-2.29.62-3.44,1.03-5.73.41-2.29.62-3.44,1.04-5.73,1.72-9.13,3.43-16.68,5.03-22.65.07-.74.52-1.16,1.34-1.28.82-.12,1.44.09,1.88.64.02.03.04.05.06.08,0,.03.01.04.02.07.17.22.25.47.25.75.23,1.86.56,3.97,1.02,6.33.49,2.51.75,3.77,1.3,6.28,1.23,5.51,2.27,9.7,2.89,12.58.46,2.25.7,3.38,1.21,5.63.5,2.26.76,3.4,1.31,5.66,1.25-11.5,2.51-23,3.76-34.49.11-1.03.75-1.47,1.92-1.36,1.14.11,1.67.67,1.58,1.7-1.34,15.33-2.69,30.66-4.03,45.98Z"/>
      <path class="cls-10" d="m407.28,473.48c.13-.8.67-1.19,1.64-1.18.94.01,1.52.39,1.74,1.14,4.2,15.32,8.56,30.63,10.95,46.36.06.48-.12.9-.55,1.21-.39.28-.91.44-1.52.47-1.48.09-2.31-.41-2.44-1.42-.56-4.34-1.27-8.91-2.2-13.58-2.05,0-3.08-.02-5.13-.08-2.16-.06-3.87-.13-5.13-.17-.29,1.46-.44,2.18-.74,3.64-.3,1.45-.45,2.18-.76,3.64-.62,2.72-1.25,5.13-1.89,7.22-.14.48-.48.8-1,.97-.49.16-1.03.18-1.61.04-.61-.14-1.07-.41-1.38-.75-.35-.38-.48-.82-.32-1.29.98-3.03,2.04-6.95,3.12-11.75.52-2.38.78-3.57,1.27-5.95.51-2.3.94-4.28,1.29-5.92.66-3.03,1.51-6.79,2.45-11.28.94-4.52,1.38-6.78,2.21-11.31Zm-2.04,29.56c1.81.09,2.71.12,4.52.17,1.81.05,2.71.06,4.52.06-1.39-6.61-3.1-13.58-4.98-20.95-1.11,6.36-1.72,9.54-3.05,15.88-.39,1.94-.59,2.91-1,4.85Z"/>
      <path class="cls-10" d="m430.76,519.13c-.54-4.48-.8-6.73-1.34-11.21-.55-4.48-.82-6.72-1.37-11.21-1.23-9.88-2.1-17.36-2.65-22.43-.01-.11,0-.25.03-.42-.23-.48-.23-.96,0-1.42.25-.51.69-.82,1.32-.91.47-.06.71-.09,1.18-.14.47-.07.71-.11,1.18-.19.93-.15,1.74-.23,2.41-.27,1.84-.11,3.43.03,4.71.53,3.45,1.37,5.88,4.44,7.2,9.34,1.09,4.06.89,7.98-.77,11.7-1.86,4.17-5.22,7.06-9.99,8.41,1.09,7.4,1.94,13.3,2.52,17.69.14,1.02-.55,1.64-2.05,1.82-1.47.18-2.27-.26-2.38-1.28Zm2.63-44.97c-1.12-.08-2.57.03-4.37.31.62,4.64.93,6.96,1.55,11.6.67,4.65,1.01,6.97,1.69,11.62,3.68-1.2,6.19-3.74,7.38-7.44,1.05-3.24.94-6.51-.15-9.73-.59-1.75-1.27-3.13-2.02-4.11-1.07-1.39-2.44-2.13-4.07-2.25Z"/>
      <path class="cls-10" d="m462.49,464.4c.53,0,.96.2,1.27.53.29.31.46.68.48,1.11.02.45-.1.83-.37,1.12-.29.32-.71.48-1.25.48-1.55-.02-3.21.24-5.01.78,1.34,4.23,2.01,6.34,3.35,10.57,1.37,4.22,2.06,6.32,3.43,10.54,3.05,9.36,5.29,16.48,6.82,21.09.32.97-.21,1.69-1.67,2.14-1.45.44-2.33.15-2.62-.84-1.38-4.74-3.51-11.78-6.34-21.13-1.28-4.23-1.92-6.35-3.2-10.58-1.24-4.23-1.86-6.34-3.1-10.57-.57.22-.86.33-1.43.55-.57.23-.85.34-1.43.57-1.14.45-2.15.76-2.94.98-1.09.3-1.78-.05-2.03-1.1-.25-1.05.17-1.71,1.25-2.01.96-.26,2.2-.68,3.7-1.26.71-.28,1.07-.43,1.78-.72.73-.28,1.09-.42,1.82-.71,2.8-1.06,5.28-1.59,7.5-1.54Z"/>
      <path class="cls-10" d="m488.98,478.94c2.08,2.57,4.9,5.39,8.56,8.38,1.06.88,2.65,2.13,4.82,3.73.98.75,1.48,1.12,2.47,1.86.99.73,1.48,1.09,2.48,1.8.43.32.58.71.46,1.16-.12.46-.42.87-.89,1.25-.47.37-.99.59-1.52.67-.62.1-1.14.02-1.52-.3-.98-.72-1.46-1.09-2.43-1.82-.94-.73-1.41-1.1-2.35-1.83-2.11-1.65-3.66-2.92-4.68-3.78-3.53-2.99-6.27-5.79-8.3-8.33-.61.48-1.32.96-2.12,1.43,3.55,7.71,6.29,14.35,8.29,19.59.36.95-.13,1.75-1.53,2.34-1.41.59-2.28.38-2.61-.59-1.94-5.69-4.82-12.76-8.51-21.21-.94-2.1-1.41-3.15-2.34-5.25-.91-2.1-1.37-3.14-2.28-5.24-1.84-4.13-3.13-8.49-4.5-10.5-.25-.36-.56-.85-.49-1.4.08-.6.43-1.03,1.05-1.29,3.6-1.52,6.6-2.33,9.1-2.26,3.07.08,5.61,1.45,7.58,4.2,1.61,2.24,2.75,4.56,3.36,6.98.74,2.92.57,5.6-.58,8.01-.39.83-.89,1.64-1.51,2.41Zm-6.4,1.29c2.7-1.65,4.26-3.49,4.72-5.41.49-2.04.43-4.17-.18-6.34-.6-2.15-1.59-3.99-2.89-5.48-1.37-1.56-2.99-2.37-4.77-2.44-1.41-.05-3.18.38-5.33,1.24,1.12,2.59,2.51,5.67,4.17,9.22,1.71,3.69,2.56,5.53,4.28,9.21Z"/>
      <path class="cls-10" d="m519.78,488.3c.28.39.28.85.03,1.36-.2.41-.57.8-1.1,1.12-.53.32-1.07.51-1.58.51-.56,0-.98-.22-1.23-.63-3.72-5.69-7.77-12.24-12.19-19.63-2.36-3.96-3.54-5.95-5.89-9.91-2.34-3.97-3.51-5.96-5.85-9.94-.26-.43-.27-.88-.1-1.3.15-.39.42-.73.83-.98.41-.25.83-.33,1.25-.28.44.06.8.29,1.07.72,2.43,3.92,3.64,5.88,6.06,9.81,2.45,3.91,3.68,5.86,6.14,9.76,4.58,7.29,8.76,13.75,12.57,19.38Z"/>
      <path class="cls-10" d="m528.15,482.82c-2.6-3.7-3.89-5.55-6.48-9.24-2.61-3.69-3.91-5.53-6.51-9.22-5.76-8.12-10.07-14.3-12.95-18.5-.06-.09-.12-.22-.17-.38-.43-.31-.65-.73-.67-1.25-.02-.57.23-1.05.76-1.45.4-.28.6-.42,1-.7.39-.29.58-.44.97-.74.77-.59,1.46-1.06,2.04-1.42,1.61-1,3.1-1.65,4.5-1.85,3.76-.49,7.41,1.01,10.91,4.69,2.9,3.05,4.56,6.61,4.81,10.73.28,4.6-1.4,8.82-5.05,12.33,4.47,6,8.01,10.79,10.6,14.38.6.84.28,1.71-.99,2.61-1.24.88-2.16.88-2.75.03Zm-18.82-40.97c-1.04.48-2.3,1.29-3.79,2.42,2.74,3.79,4.12,5.69,6.86,9.48,2.79,3.77,4.19,5.66,6.99,9.43,2.75-2.86,3.81-6.33,3.15-10.19-.58-3.38-2.22-6.22-4.72-8.52-1.36-1.26-2.62-2.14-3.76-2.63-1.62-.7-3.21-.68-4.74.02Z"/>
    </g>
  </g>
</svg>